<mxfile host="app.diagrams.net" agent="Mozilla/5.0 (Windows NT 10.0; Win64; x64) AppleWebKit/537.36 (KHTML, like Gecko) Chrome/134.0.0.0 Safari/537.36" version="26.1.0">
  <diagram name="Page-1" id="38b20595-45e3-9b7f-d5ca-b57f44c5b66d">
    <mxGraphModel dx="1760" dy="936" grid="1" gridSize="10" guides="1" tooltips="1" connect="1" arrows="1" fold="1" page="1" pageScale="1" pageWidth="1100" pageHeight="850" background="none" math="0" shadow="0">
      <root>
        <mxCell id="0" />
        <mxCell id="1" parent="0" />
        <mxCell id="48ef80bc37b76060-389" value="" style="verticalLabelPosition=bottom;html=1;verticalAlign=top;align=center;strokeWidth=1;shape=mxgraph.floorplan.desk_corner_2;rounded=0;shadow=0;comic=0;fontFamily=Verdana;fontSize=12;flipH=1;flipV=1;" parent="1" vertex="1">
          <mxGeometry x="1982" y="800" width="192" height="97" as="geometry" />
        </mxCell>
        <mxCell id="48ef80bc37b76060-10" value="" style="verticalLabelPosition=bottom;html=1;verticalAlign=top;align=center;strokeWidth=1;shape=mxgraph.floorplan.office_chair;shadow=0;rounded=0;comic=0;fontFamily=Verdana;fontSize=12;" parent="1" vertex="1">
          <mxGeometry x="1642" y="1283" width="40" height="43" as="geometry" />
        </mxCell>
        <mxCell id="48ef80bc37b76060-11" value="" style="verticalLabelPosition=bottom;html=1;verticalAlign=top;align=center;strokeWidth=1;shape=mxgraph.floorplan.office_chair;shadow=0;direction=west;rounded=0;comic=0;fontFamily=Verdana;fontSize=12;" parent="1" vertex="1">
          <mxGeometry x="1642" y="1380" width="40" height="43" as="geometry" />
        </mxCell>
        <mxCell id="48ef80bc37b76060-12" value="" style="verticalLabelPosition=bottom;html=1;verticalAlign=top;align=center;strokeWidth=1;shape=mxgraph.floorplan.office_chair;shadow=0;direction=north;rounded=0;comic=0;fontFamily=Verdana;fontSize=12;" parent="1" vertex="1">
          <mxGeometry x="1592" y="1333" width="43" height="40" as="geometry" />
        </mxCell>
        <mxCell id="48ef80bc37b76060-13" value="" style="verticalLabelPosition=bottom;html=1;verticalAlign=top;align=center;strokeWidth=1;shape=mxgraph.floorplan.office_chair;shadow=0;direction=south;rounded=0;comic=0;fontFamily=Verdana;fontSize=12;" parent="1" vertex="1">
          <mxGeometry x="1869" y="1333" width="43" height="40" as="geometry" />
        </mxCell>
        <mxCell id="48ef80bc37b76060-14" value="" style="verticalLabelPosition=bottom;html=1;verticalAlign=top;align=center;strokeWidth=1;shape=mxgraph.floorplan.office_chair;shadow=0;rounded=0;comic=0;fontFamily=Verdana;fontSize=12;" parent="1" vertex="1">
          <mxGeometry x="1702" y="1283" width="40" height="43" as="geometry" />
        </mxCell>
        <mxCell id="48ef80bc37b76060-15" value="" style="verticalLabelPosition=bottom;html=1;verticalAlign=top;align=center;strokeWidth=1;shape=mxgraph.floorplan.office_chair;shadow=0;direction=west;rounded=0;comic=0;fontFamily=Verdana;fontSize=12;" parent="1" vertex="1">
          <mxGeometry x="1702" y="1380" width="40" height="43" as="geometry" />
        </mxCell>
        <mxCell id="48ef80bc37b76060-16" value="" style="verticalLabelPosition=bottom;html=1;verticalAlign=top;align=center;strokeWidth=1;shape=mxgraph.floorplan.office_chair;shadow=0;rounded=0;comic=0;fontFamily=Verdana;fontSize=12;" parent="1" vertex="1">
          <mxGeometry x="1762" y="1283" width="40" height="43" as="geometry" />
        </mxCell>
        <mxCell id="48ef80bc37b76060-17" value="" style="verticalLabelPosition=bottom;html=1;verticalAlign=top;align=center;strokeWidth=1;shape=mxgraph.floorplan.office_chair;shadow=0;direction=west;rounded=0;comic=0;fontFamily=Verdana;fontSize=12;" parent="1" vertex="1">
          <mxGeometry x="1762" y="1380" width="40" height="43" as="geometry" />
        </mxCell>
        <mxCell id="48ef80bc37b76060-18" value="" style="verticalLabelPosition=bottom;html=1;verticalAlign=top;align=center;strokeWidth=1;shape=mxgraph.floorplan.office_chair;shadow=0;rounded=0;comic=0;fontFamily=Verdana;fontSize=12;" parent="1" vertex="1">
          <mxGeometry x="1822" y="1283" width="40" height="43" as="geometry" />
        </mxCell>
        <mxCell id="48ef80bc37b76060-19" value="" style="verticalLabelPosition=bottom;html=1;verticalAlign=top;align=center;strokeWidth=1;shape=mxgraph.floorplan.office_chair;shadow=0;direction=west;rounded=0;comic=0;fontFamily=Verdana;fontSize=12;" parent="1" vertex="1">
          <mxGeometry x="1822" y="1380" width="40" height="43" as="geometry" />
        </mxCell>
        <mxCell id="48ef80bc37b76060-20" value="" style="shape=ellipse;fillColor=#ffffff;strokeColor=#000000;shadow=0;rounded=0;comic=0;fontFamily=Verdana;fontSize=12;align=center;html=1;" parent="1" vertex="1">
          <mxGeometry x="1612" y="1303" width="280" height="100" as="geometry" />
        </mxCell>
        <mxCell id="48ef80bc37b76060-134" value="" style="verticalLabelPosition=bottom;html=1;verticalAlign=top;align=center;strokeWidth=1;shape=mxgraph.floorplan.wallCorner;fillColor=#000000;direction=west;rounded=0;shadow=0;comic=0;fontFamily=Verdana;fontSize=12;" parent="1" vertex="1">
          <mxGeometry x="1520" y="889" width="670" height="261" as="geometry" />
        </mxCell>
        <mxCell id="48ef80bc37b76060-135" value="" style="verticalLabelPosition=bottom;html=1;verticalAlign=top;align=center;strokeWidth=1;shape=mxgraph.floorplan.wallCorner;fillColor=#000000;direction=north;rounded=0;shadow=0;comic=0;fontFamily=Verdana;fontSize=12;rotation=-179;" parent="1" vertex="1">
          <mxGeometry x="1423.84" y="599.09" width="769.63" height="526.7" as="geometry" />
        </mxCell>
        <mxCell id="48ef80bc37b76060-156" value="" style="verticalLabelPosition=bottom;html=1;verticalAlign=top;align=center;strokeWidth=1;shape=mxgraph.floorplan.wall;fillColor=#000000;direction=south;rounded=0;shadow=0;comic=0;fontFamily=Verdana;fontSize=12;" parent="1" vertex="1">
          <mxGeometry x="393" y="789" width="10" height="441" as="geometry" />
        </mxCell>
        <mxCell id="48ef80bc37b76060-166" value="" style="verticalLabelPosition=bottom;html=1;verticalAlign=top;align=center;strokeWidth=1;shape=mxgraph.floorplan.plant;rounded=0;shadow=0;comic=0;fontFamily=Verdana;fontSize=12;" parent="1" vertex="1">
          <mxGeometry x="1019" y="1387" width="47" height="51" as="geometry" />
        </mxCell>
        <mxCell id="48ef80bc37b76060-171" value="" style="verticalLabelPosition=bottom;html=1;verticalAlign=top;align=center;strokeWidth=1;shape=mxgraph.floorplan.wall;fillColor=#000000;rounded=0;shadow=0;comic=0;fontFamily=Verdana;fontSize=12;" parent="1" vertex="1">
          <mxGeometry x="390" y="1460" width="2070" height="10" as="geometry" />
        </mxCell>
        <mxCell id="48ef80bc37b76060-174" value="" style="verticalLabelPosition=bottom;html=1;verticalAlign=top;align=center;strokeWidth=1;shape=mxgraph.floorplan.plant;rounded=0;shadow=0;comic=0;fontFamily=Verdana;fontSize=12;" parent="1" vertex="1">
          <mxGeometry x="1244" y="1392" width="47" height="51" as="geometry" />
        </mxCell>
        <mxCell id="48ef80bc37b76060-176" value="" style="verticalLabelPosition=bottom;html=1;verticalAlign=top;align=center;strokeWidth=1;shape=mxgraph.floorplan.dresser;rounded=0;shadow=0;comic=0;fontFamily=Verdana;fontSize=12;rotation=0;" parent="1" vertex="1">
          <mxGeometry x="840" y="858" width="100" height="65" as="geometry" />
        </mxCell>
        <mxCell id="48ef80bc37b76060-178" value="" style="verticalLabelPosition=bottom;html=1;verticalAlign=top;align=center;strokeWidth=1;shape=mxgraph.floorplan.wallCorner;fillColor=#000000;rounded=0;shadow=0;comic=0;fontFamily=Verdana;fontSize=12;" parent="1" vertex="1">
          <mxGeometry x="1452" y="1197" width="21" height="250" as="geometry" />
        </mxCell>
        <mxCell id="48ef80bc37b76060-179" value="" style="verticalLabelPosition=bottom;html=1;verticalAlign=top;align=center;strokeWidth=1;shape=mxgraph.floorplan.wallCorner;fillColor=#000000;direction=south;rounded=0;shadow=0;comic=0;fontFamily=Verdana;fontSize=12;" parent="1" vertex="1">
          <mxGeometry x="1633" y="1197" width="330" height="254" as="geometry" />
        </mxCell>
        <mxCell id="48ef80bc37b76060-180" value="" style="verticalLabelPosition=bottom;html=1;verticalAlign=top;align=center;strokeWidth=1;shape=mxgraph.floorplan.doorDouble;rounded=0;shadow=0;comic=0;fontFamily=Verdana;fontSize=12;" parent="1" vertex="1">
          <mxGeometry x="1473" y="1200" width="160" height="85" as="geometry" />
        </mxCell>
        <mxCell id="48ef80bc37b76060-181" value="" style="verticalLabelPosition=bottom;html=1;verticalAlign=top;align=center;strokeWidth=1;shape=mxgraph.floorplan.plant;rounded=0;shadow=0;comic=0;fillColor=#FFFFFF;fontFamily=Verdana;fontSize=12;" parent="1" vertex="1">
          <mxGeometry x="1473" y="1380" width="47" height="51" as="geometry" />
        </mxCell>
        <mxCell id="48ef80bc37b76060-182" value="" style="verticalLabelPosition=bottom;html=1;verticalAlign=top;align=center;strokeWidth=1;shape=mxgraph.floorplan.plant;rounded=0;shadow=0;comic=0;fontFamily=Verdana;fontSize=12;" parent="1" vertex="1">
          <mxGeometry x="1892" y="1211" width="47" height="51" as="geometry" />
        </mxCell>
        <mxCell id="48ef80bc37b76060-183" value="" style="verticalLabelPosition=bottom;html=1;verticalAlign=top;align=center;strokeWidth=1;shape=mxgraph.floorplan.plant;rounded=0;shadow=0;comic=0;fontFamily=Verdana;fontSize=12;" parent="1" vertex="1">
          <mxGeometry x="1893" y="1387" width="47" height="51" as="geometry" />
        </mxCell>
        <mxCell id="48ef80bc37b76060-184" value="" style="verticalLabelPosition=bottom;html=1;verticalAlign=top;align=center;strokeWidth=1;shape=mxgraph.floorplan.window;rounded=0;shadow=0;comic=0;fontFamily=Verdana;fontSize=12;" parent="1" vertex="1">
          <mxGeometry x="1653" y="1197" width="120" height="10" as="geometry" />
        </mxCell>
        <mxCell id="48ef80bc37b76060-185" value="" style="verticalLabelPosition=bottom;html=1;verticalAlign=top;align=center;strokeWidth=1;shape=mxgraph.floorplan.window;rounded=0;shadow=0;comic=0;fontFamily=Verdana;fontSize=12;" parent="1" vertex="1">
          <mxGeometry x="1793" y="1197" width="110" height="10" as="geometry" />
        </mxCell>
        <mxCell id="48ef80bc37b76060-188" value="" style="verticalLabelPosition=bottom;html=1;verticalAlign=top;align=center;strokeWidth=1;shape=mxgraph.floorplan.wall;fillColor=#000000;rounded=0;shadow=0;comic=0;fontFamily=Verdana;fontSize=12;" parent="1" vertex="1">
          <mxGeometry x="2043" y="1170" width="407" height="37" as="geometry" />
        </mxCell>
        <mxCell id="48ef80bc37b76060-189" value="" style="verticalLabelPosition=bottom;html=1;verticalAlign=top;align=center;strokeWidth=1;shape=mxgraph.floorplan.wall;fillColor=#000000;direction=south;rounded=0;shadow=0;comic=0;fontFamily=Verdana;fontSize=12;" parent="1" vertex="1">
          <mxGeometry x="2450" y="1255.25" width="10" height="194.75" as="geometry" />
        </mxCell>
        <mxCell id="48ef80bc37b76060-249" value="" style="verticalLabelPosition=bottom;html=1;verticalAlign=top;align=center;strokeWidth=1;shape=mxgraph.floorplan.wall;fillColor=#000000;direction=south;rounded=0;shadow=0;comic=0;fontFamily=Verdana;fontSize=12;" parent="1" vertex="1">
          <mxGeometry x="2270" y="230" width="378" height="1240" as="geometry" />
        </mxCell>
        <mxCell id="48ef80bc37b76060-264" value="" style="verticalLabelPosition=bottom;html=1;verticalAlign=top;align=center;strokeWidth=1;shape=mxgraph.floorplan.wall;fillColor=#000000;rounded=0;shadow=0;comic=0;fontFamily=Verdana;fontSize=12;" parent="1" vertex="1">
          <mxGeometry x="603" y="483" width="77" height="10" as="geometry" />
        </mxCell>
        <mxCell id="48ef80bc37b76060-265" value="" style="group;rotation=90;" parent="1" vertex="1" connectable="0">
          <mxGeometry x="420" y="1298" width="160" height="140" as="geometry" />
        </mxCell>
        <mxCell id="48ef80bc37b76060-100" value="" style="verticalLabelPosition=bottom;html=1;verticalAlign=top;align=center;strokeWidth=1;shape=mxgraph.floorplan.office_chair;shadow=0;rounded=0;comic=0;fontFamily=Verdana;fontSize=12;rotation=90;" parent="48ef80bc37b76060-265" vertex="1">
          <mxGeometry x="109" y="19" width="40" height="43" as="geometry" />
        </mxCell>
        <mxCell id="48ef80bc37b76060-101" value="" style="verticalLabelPosition=bottom;html=1;verticalAlign=top;align=center;strokeWidth=1;shape=mxgraph.floorplan.office_chair;shadow=0;direction=west;rounded=0;comic=0;fontFamily=Verdana;fontSize=12;rotation=90;" parent="48ef80bc37b76060-265" vertex="1">
          <mxGeometry x="12" y="19" width="40" height="43" as="geometry" />
        </mxCell>
        <mxCell id="48ef80bc37b76060-104" value="" style="verticalLabelPosition=bottom;html=1;verticalAlign=top;align=center;strokeWidth=1;shape=mxgraph.floorplan.office_chair;shadow=0;rounded=0;comic=0;fontFamily=Verdana;fontSize=12;rotation=90;" parent="48ef80bc37b76060-265" vertex="1">
          <mxGeometry x="109" y="79" width="40" height="43" as="geometry" />
        </mxCell>
        <mxCell id="48ef80bc37b76060-105" value="" style="verticalLabelPosition=bottom;html=1;verticalAlign=top;align=center;strokeWidth=1;shape=mxgraph.floorplan.office_chair;shadow=0;direction=west;rounded=0;comic=0;fontFamily=Verdana;fontSize=12;rotation=90;" parent="48ef80bc37b76060-265" vertex="1">
          <mxGeometry x="12" y="79" width="40" height="43" as="geometry" />
        </mxCell>
        <mxCell id="48ef80bc37b76060-106" value="" style="shape=rect;shadow=0;rounded=0;comic=0;fontFamily=Verdana;fontSize=12;align=center;html=1;rotation=90;" parent="48ef80bc37b76060-265" vertex="1">
          <mxGeometry y="20" width="160" height="100" as="geometry" />
        </mxCell>
        <mxCell id="48ef80bc37b76060-273" value="" style="group;rotation=-90;" parent="1" vertex="1" connectable="0">
          <mxGeometry x="790" y="710" width="191" height="71" as="geometry" />
        </mxCell>
        <mxCell id="48ef80bc37b76060-268" value="" style="verticalLabelPosition=bottom;html=1;verticalAlign=top;align=center;strokeWidth=1;shape=mxgraph.floorplan.office_chair;shadow=0;rounded=0;comic=0;fontFamily=Verdana;fontSize=12;rotation=90;" parent="48ef80bc37b76060-273" vertex="1">
          <mxGeometry x="90" y="16" width="40" height="43" as="geometry" />
        </mxCell>
        <mxCell id="48ef80bc37b76060-269" value="" style="shape=rect;shadow=0;rounded=0;comic=0;fontFamily=Verdana;fontSize=12;align=center;html=1;rotation=90;" parent="48ef80bc37b76060-273" vertex="1">
          <mxGeometry x="-8" y="11" width="187" height="50" as="geometry" />
        </mxCell>
        <mxCell id="48ef80bc37b76060-270" value="" style="verticalLabelPosition=bottom;html=1;verticalAlign=top;align=center;strokeWidth=1;shape=mxgraph.floorplan.workstation;shadow=0;flipV=1;rounded=0;comic=0;fontFamily=Verdana;fontSize=12;rotation=90;" parent="48ef80bc37b76060-273" vertex="1">
          <mxGeometry x="60.5" y="59" width="50" height="40" as="geometry" />
        </mxCell>
        <mxCell id="Fn2rYvCM5hyePDwb1TG5-12" value="" style="verticalLabelPosition=bottom;html=1;verticalAlign=top;align=center;strokeWidth=1;shape=mxgraph.floorplan.workstation;shadow=0;flipV=1;rounded=0;comic=0;fontFamily=Verdana;fontSize=12;rotation=90;" vertex="1" parent="48ef80bc37b76060-273">
          <mxGeometry x="60.5" y="-24" width="50" height="40" as="geometry" />
        </mxCell>
        <mxCell id="48ef80bc37b76060-276" value="" style="group;rotation=90;" parent="1" vertex="1" connectable="0">
          <mxGeometry x="653.5" y="1285" width="160" height="140" as="geometry" />
        </mxCell>
        <mxCell id="48ef80bc37b76060-107" value="" style="verticalLabelPosition=bottom;html=1;verticalAlign=top;align=center;strokeWidth=1;shape=mxgraph.floorplan.office_chair;shadow=0;rounded=0;comic=0;fontFamily=Verdana;fontSize=12;rotation=90;" parent="48ef80bc37b76060-276" vertex="1">
          <mxGeometry x="109" y="19" width="40" height="43" as="geometry" />
        </mxCell>
        <mxCell id="48ef80bc37b76060-108" value="" style="verticalLabelPosition=bottom;html=1;verticalAlign=top;align=center;strokeWidth=1;shape=mxgraph.floorplan.office_chair;shadow=0;direction=west;rounded=0;comic=0;fontFamily=Verdana;fontSize=12;rotation=90;" parent="48ef80bc37b76060-276" vertex="1">
          <mxGeometry x="12" y="19" width="40" height="43" as="geometry" />
        </mxCell>
        <mxCell id="48ef80bc37b76060-111" value="" style="verticalLabelPosition=bottom;html=1;verticalAlign=top;align=center;strokeWidth=1;shape=mxgraph.floorplan.office_chair;shadow=0;rounded=0;comic=0;fontFamily=Verdana;fontSize=12;rotation=90;" parent="48ef80bc37b76060-276" vertex="1">
          <mxGeometry x="109" y="79" width="40" height="43" as="geometry" />
        </mxCell>
        <mxCell id="48ef80bc37b76060-112" value="" style="verticalLabelPosition=bottom;html=1;verticalAlign=top;align=center;strokeWidth=1;shape=mxgraph.floorplan.office_chair;shadow=0;direction=west;rounded=0;comic=0;fontFamily=Verdana;fontSize=12;rotation=90;" parent="48ef80bc37b76060-276" vertex="1">
          <mxGeometry x="12" y="79" width="40" height="43" as="geometry" />
        </mxCell>
        <mxCell id="48ef80bc37b76060-113" value="" style="shape=rect;shadow=0;rounded=0;comic=0;fontFamily=Verdana;fontSize=12;align=center;html=1;rotation=90;" parent="48ef80bc37b76060-276" vertex="1">
          <mxGeometry y="20" width="160" height="100" as="geometry" />
        </mxCell>
        <mxCell id="Fn2rYvCM5hyePDwb1TG5-45" value="" style="image;aspect=fixed;perimeter=ellipsePerimeter;html=1;align=center;shadow=0;dashed=0;spacingTop=3;image=img/lib/active_directory/printer.svg;" vertex="1" parent="48ef80bc37b76060-276">
          <mxGeometry x="36.5" y="107" width="50" height="33" as="geometry" />
        </mxCell>
        <mxCell id="Fn2rYvCM5hyePDwb1TG5-24" value="" style="edgeStyle=orthogonalEdgeStyle;rounded=0;orthogonalLoop=1;jettySize=auto;html=1;" edge="1" parent="1">
          <mxGeometry relative="1" as="geometry">
            <mxPoint x="2817.6288167938937" y="317.5" as="sourcePoint" />
            <mxPoint x="2814.666666666667" y="306.9999999999998" as="targetPoint" />
          </mxGeometry>
        </mxCell>
        <mxCell id="48ef80bc37b76060-285" value="" style="verticalLabelPosition=bottom;html=1;verticalAlign=top;align=center;strokeWidth=1;shape=mxgraph.floorplan.wall;fillColor=#000000;direction=south;rounded=0;shadow=0;comic=0;fontFamily=Verdana;fontSize=12;" parent="1" vertex="1">
          <mxGeometry x="2318" y="243" width="52" height="248" as="geometry" />
        </mxCell>
        <mxCell id="48ef80bc37b76060-286" value="" style="verticalLabelPosition=bottom;html=1;verticalAlign=top;align=center;strokeWidth=1;shape=mxgraph.floorplan.plant;rounded=0;shadow=0;comic=0;fontFamily=Verdana;fontSize=12;" parent="1" vertex="1">
          <mxGeometry x="1000" y="256" width="47" height="51" as="geometry" />
        </mxCell>
        <mxCell id="48ef80bc37b76060-288" value="" style="verticalLabelPosition=bottom;html=1;verticalAlign=top;align=center;strokeWidth=1;shape=mxgraph.floorplan.wall;fillColor=#000000;rounded=0;shadow=0;comic=0;fontFamily=Verdana;fontSize=12;" parent="1" vertex="1">
          <mxGeometry x="2313" y="483" width="20" height="10" as="geometry" />
        </mxCell>
        <mxCell id="48ef80bc37b76060-289" value="" style="verticalLabelPosition=bottom;html=1;verticalAlign=top;align=center;strokeWidth=1;shape=mxgraph.floorplan.doorRight;rounded=0;shadow=0;comic=0;fontFamily=Verdana;fontSize=12;flipV=1;" parent="1" vertex="1">
          <mxGeometry x="2253" y="405" width="80" height="85" as="geometry" />
        </mxCell>
        <mxCell id="48ef80bc37b76060-290" value="" style="verticalLabelPosition=bottom;html=1;verticalAlign=top;align=center;strokeWidth=1;shape=mxgraph.floorplan.wall;fillColor=#000000;rounded=0;shadow=0;comic=0;fontFamily=Verdana;fontSize=12;" parent="1" vertex="1">
          <mxGeometry x="2093" y="483" width="140" height="10" as="geometry" />
        </mxCell>
        <mxCell id="48ef80bc37b76060-291" value="" style="verticalLabelPosition=bottom;html=1;verticalAlign=top;align=center;strokeWidth=1;shape=mxgraph.floorplan.wall;fillColor=#000000;direction=south;rounded=0;shadow=0;comic=0;fontFamily=Verdana;fontSize=12;" parent="1" vertex="1">
          <mxGeometry x="2098" y="247" width="10" height="244" as="geometry" />
        </mxCell>
        <mxCell id="48ef80bc37b76060-292" value="" style="group;rotation=90;" parent="1" vertex="1" connectable="0">
          <mxGeometry x="2104" y="273" width="80" height="70" as="geometry" />
        </mxCell>
        <mxCell id="48ef80bc37b76060-293" value="" style="verticalLabelPosition=bottom;html=1;verticalAlign=top;align=center;strokeWidth=1;shape=mxgraph.floorplan.office_chair;shadow=0;rounded=0;comic=0;fontFamily=Verdana;fontSize=12;rotation=90;" parent="48ef80bc37b76060-292" vertex="1">
          <mxGeometry x="35" y="14" width="40" height="43" as="geometry" />
        </mxCell>
        <mxCell id="48ef80bc37b76060-294" value="" style="shape=rect;shadow=0;rounded=0;comic=0;fontFamily=Verdana;fontSize=12;align=center;html=1;rotation=90;" parent="48ef80bc37b76060-292" vertex="1">
          <mxGeometry x="-10" y="10" width="80" height="50" as="geometry" />
        </mxCell>
        <mxCell id="48ef80bc37b76060-295" value="" style="verticalLabelPosition=bottom;html=1;verticalAlign=top;align=center;strokeWidth=1;shape=mxgraph.floorplan.workstation;shadow=0;flipV=1;rounded=0;comic=0;fontFamily=Verdana;fontSize=12;rotation=90;" parent="48ef80bc37b76060-292" vertex="1">
          <mxGeometry y="15" width="50" height="40" as="geometry" />
        </mxCell>
        <mxCell id="48ef80bc37b76060-296" value="" style="verticalLabelPosition=bottom;html=1;verticalAlign=top;align=center;strokeWidth=1;shape=mxgraph.floorplan.dresser;rounded=0;shadow=0;comic=0;fontFamily=Verdana;fontSize=12;rotation=-90;" parent="1" vertex="1">
          <mxGeometry x="2091" y="400" width="100" height="65" as="geometry" />
        </mxCell>
        <mxCell id="48ef80bc37b76060-297" value="" style="verticalLabelPosition=bottom;html=1;verticalAlign=top;align=center;strokeWidth=1;shape=mxgraph.floorplan.plant;rounded=0;shadow=0;comic=0;fontFamily=Verdana;fontSize=12;" parent="1" vertex="1">
          <mxGeometry x="2261" y="260" width="47" height="51" as="geometry" />
        </mxCell>
        <mxCell id="48ef80bc37b76060-298" value="" style="verticalLabelPosition=bottom;html=1;verticalAlign=top;align=center;strokeWidth=1;shape=mxgraph.floorplan.doorRight;rounded=0;shadow=0;comic=0;fontFamily=Verdana;fontSize=12;flipV=1;" parent="1" vertex="1">
          <mxGeometry x="2013" y="405" width="80" height="85" as="geometry" />
        </mxCell>
        <mxCell id="48ef80bc37b76060-299" value="" style="verticalLabelPosition=bottom;html=1;verticalAlign=top;align=center;strokeWidth=1;shape=mxgraph.floorplan.wall;fillColor=#000000;rounded=0;shadow=0;comic=0;fontFamily=Verdana;fontSize=12;" parent="1" vertex="1">
          <mxGeometry x="1873" y="483" width="140" height="10" as="geometry" />
        </mxCell>
        <mxCell id="48ef80bc37b76060-300" value="" style="verticalLabelPosition=bottom;html=1;verticalAlign=top;align=center;strokeWidth=1;shape=mxgraph.floorplan.wall;fillColor=#000000;direction=south;rounded=0;shadow=0;comic=0;fontFamily=Verdana;fontSize=12;" parent="1" vertex="1">
          <mxGeometry x="1878" y="247" width="10" height="244" as="geometry" />
        </mxCell>
        <mxCell id="48ef80bc37b76060-301" value="" style="group;rotation=90;" parent="1" vertex="1" connectable="0">
          <mxGeometry x="1884" y="273" width="80" height="70" as="geometry" />
        </mxCell>
        <mxCell id="48ef80bc37b76060-302" value="" style="verticalLabelPosition=bottom;html=1;verticalAlign=top;align=center;strokeWidth=1;shape=mxgraph.floorplan.office_chair;shadow=0;rounded=0;comic=0;fontFamily=Verdana;fontSize=12;rotation=90;" parent="48ef80bc37b76060-301" vertex="1">
          <mxGeometry x="35" y="14" width="40" height="43" as="geometry" />
        </mxCell>
        <mxCell id="48ef80bc37b76060-303" value="" style="shape=rect;shadow=0;rounded=0;comic=0;fontFamily=Verdana;fontSize=12;align=center;html=1;rotation=90;" parent="48ef80bc37b76060-301" vertex="1">
          <mxGeometry x="-10" y="10" width="80" height="50" as="geometry" />
        </mxCell>
        <mxCell id="48ef80bc37b76060-304" value="" style="verticalLabelPosition=bottom;html=1;verticalAlign=top;align=center;strokeWidth=1;shape=mxgraph.floorplan.workstation;shadow=0;flipV=1;rounded=0;comic=0;fontFamily=Verdana;fontSize=12;rotation=90;" parent="48ef80bc37b76060-301" vertex="1">
          <mxGeometry y="15" width="50" height="40" as="geometry" />
        </mxCell>
        <mxCell id="48ef80bc37b76060-305" value="" style="verticalLabelPosition=bottom;html=1;verticalAlign=top;align=center;strokeWidth=1;shape=mxgraph.floorplan.dresser;rounded=0;shadow=0;comic=0;fontFamily=Verdana;fontSize=12;rotation=-90;" parent="1" vertex="1">
          <mxGeometry x="1871" y="400" width="100" height="65" as="geometry" />
        </mxCell>
        <mxCell id="48ef80bc37b76060-306" value="" style="verticalLabelPosition=bottom;html=1;verticalAlign=top;align=center;strokeWidth=1;shape=mxgraph.floorplan.plant;rounded=0;shadow=0;comic=0;fontFamily=Verdana;fontSize=12;" parent="1" vertex="1">
          <mxGeometry x="2041" y="260" width="47" height="51" as="geometry" />
        </mxCell>
        <mxCell id="48ef80bc37b76060-307" value="" style="verticalLabelPosition=bottom;html=1;verticalAlign=top;align=center;strokeWidth=1;shape=mxgraph.floorplan.doorRight;rounded=0;shadow=0;comic=0;fillColor=#FFFFFF;fontFamily=Verdana;fontSize=12;flipV=1;" parent="1" vertex="1">
          <mxGeometry x="1793" y="405" width="80" height="85" as="geometry" />
        </mxCell>
        <mxCell id="48ef80bc37b76060-308" value="" style="verticalLabelPosition=bottom;html=1;verticalAlign=top;align=center;strokeWidth=1;shape=mxgraph.floorplan.wall;fillColor=#000000;rounded=0;shadow=0;comic=0;fontFamily=Verdana;fontSize=12;" parent="1" vertex="1">
          <mxGeometry x="1653" y="483" width="140" height="10" as="geometry" />
        </mxCell>
        <mxCell id="48ef80bc37b76060-309" value="" style="verticalLabelPosition=bottom;html=1;verticalAlign=top;align=center;strokeWidth=1;shape=mxgraph.floorplan.wall;fillColor=#000000;direction=south;rounded=0;shadow=0;comic=0;fontFamily=Verdana;fontSize=12;" parent="1" vertex="1">
          <mxGeometry x="1658" y="247" width="10" height="244" as="geometry" />
        </mxCell>
        <mxCell id="48ef80bc37b76060-310" value="" style="group;rotation=90;" parent="1" vertex="1" connectable="0">
          <mxGeometry x="1664" y="273" width="80" height="70" as="geometry" />
        </mxCell>
        <mxCell id="48ef80bc37b76060-311" value="" style="verticalLabelPosition=bottom;html=1;verticalAlign=top;align=center;strokeWidth=1;shape=mxgraph.floorplan.office_chair;shadow=0;rounded=0;comic=0;fontFamily=Verdana;fontSize=12;rotation=90;" parent="48ef80bc37b76060-310" vertex="1">
          <mxGeometry x="35" y="14" width="40" height="43" as="geometry" />
        </mxCell>
        <mxCell id="48ef80bc37b76060-312" value="" style="shape=rect;shadow=0;rounded=0;comic=0;fontFamily=Verdana;fontSize=12;align=center;html=1;rotation=90;" parent="48ef80bc37b76060-310" vertex="1">
          <mxGeometry x="-10" y="10" width="80" height="50" as="geometry" />
        </mxCell>
        <mxCell id="48ef80bc37b76060-313" value="" style="verticalLabelPosition=bottom;html=1;verticalAlign=top;align=center;strokeWidth=1;shape=mxgraph.floorplan.workstation;shadow=0;flipV=1;rounded=0;comic=0;fontFamily=Verdana;fontSize=12;rotation=90;" parent="48ef80bc37b76060-310" vertex="1">
          <mxGeometry y="15" width="50" height="40" as="geometry" />
        </mxCell>
        <mxCell id="48ef80bc37b76060-314" value="" style="verticalLabelPosition=bottom;html=1;verticalAlign=top;align=center;strokeWidth=1;shape=mxgraph.floorplan.dresser;rounded=0;shadow=0;comic=0;fillColor=#FFFFFF;fontFamily=Verdana;fontSize=12;rotation=-90;" parent="1" vertex="1">
          <mxGeometry x="1651" y="400" width="100" height="65" as="geometry" />
        </mxCell>
        <mxCell id="48ef80bc37b76060-315" value="" style="verticalLabelPosition=bottom;html=1;verticalAlign=top;align=center;strokeWidth=1;shape=mxgraph.floorplan.plant;rounded=0;shadow=0;comic=0;fontFamily=Verdana;fontSize=12;" parent="1" vertex="1">
          <mxGeometry x="1821" y="260" width="47" height="51" as="geometry" />
        </mxCell>
        <mxCell id="48ef80bc37b76060-316" value="" style="verticalLabelPosition=bottom;html=1;verticalAlign=top;align=center;strokeWidth=1;shape=mxgraph.floorplan.doorRight;rounded=0;shadow=0;comic=0;fontFamily=Verdana;fontSize=12;flipV=1;" parent="1" vertex="1">
          <mxGeometry x="1573" y="405" width="80" height="85" as="geometry" />
        </mxCell>
        <mxCell id="48ef80bc37b76060-317" value="" style="verticalLabelPosition=bottom;html=1;verticalAlign=top;align=center;strokeWidth=1;shape=mxgraph.floorplan.wall;fillColor=#000000;rounded=0;shadow=0;comic=0;fontFamily=Verdana;fontSize=12;" parent="1" vertex="1">
          <mxGeometry x="1380" y="483" width="193" height="10" as="geometry" />
        </mxCell>
        <mxCell id="48ef80bc37b76060-318" value="" style="verticalLabelPosition=bottom;html=1;verticalAlign=top;align=center;strokeWidth=1;shape=mxgraph.floorplan.wall;fillColor=#000000;direction=south;rounded=0;shadow=0;comic=0;fontFamily=Verdana;fontSize=12;" parent="1" vertex="1">
          <mxGeometry x="1330" y="247" width="78" height="244" as="geometry" />
        </mxCell>
        <mxCell id="48ef80bc37b76060-319" value="" style="group;rotation=90;" parent="1" vertex="1" connectable="0">
          <mxGeometry x="1444" y="273" width="80" height="70" as="geometry" />
        </mxCell>
        <mxCell id="48ef80bc37b76060-320" value="" style="verticalLabelPosition=bottom;html=1;verticalAlign=top;align=center;strokeWidth=1;shape=mxgraph.floorplan.office_chair;shadow=0;rounded=0;comic=0;fontFamily=Verdana;fontSize=12;rotation=90;" parent="48ef80bc37b76060-319" vertex="1">
          <mxGeometry x="35" y="14" width="40" height="43" as="geometry" />
        </mxCell>
        <mxCell id="48ef80bc37b76060-321" value="" style="shape=rect;shadow=0;rounded=0;comic=0;fontFamily=Verdana;fontSize=12;align=center;html=1;rotation=90;" parent="48ef80bc37b76060-319" vertex="1">
          <mxGeometry x="-10" y="10" width="80" height="50" as="geometry" />
        </mxCell>
        <mxCell id="48ef80bc37b76060-322" value="" style="verticalLabelPosition=bottom;html=1;verticalAlign=top;align=center;strokeWidth=1;shape=mxgraph.floorplan.workstation;shadow=0;flipV=1;rounded=0;comic=0;fontFamily=Verdana;fontSize=12;rotation=90;" parent="48ef80bc37b76060-319" vertex="1">
          <mxGeometry y="15" width="50" height="40" as="geometry" />
        </mxCell>
        <mxCell id="48ef80bc37b76060-323" value="" style="verticalLabelPosition=bottom;html=1;verticalAlign=top;align=center;strokeWidth=1;shape=mxgraph.floorplan.dresser;rounded=0;shadow=0;comic=0;fontFamily=Verdana;fontSize=12;rotation=-90;" parent="1" vertex="1">
          <mxGeometry x="1431" y="400" width="100" height="65" as="geometry" />
        </mxCell>
        <mxCell id="48ef80bc37b76060-324" value="" style="verticalLabelPosition=bottom;html=1;verticalAlign=top;align=center;strokeWidth=1;shape=mxgraph.floorplan.plant;rounded=0;shadow=0;comic=0;fontFamily=Verdana;fontSize=12;" parent="1" vertex="1">
          <mxGeometry x="1601" y="260" width="47" height="51" as="geometry" />
        </mxCell>
        <mxCell id="48ef80bc37b76060-325" value="" style="verticalLabelPosition=bottom;html=1;verticalAlign=top;align=center;strokeWidth=1;shape=mxgraph.floorplan.doorRight;rounded=0;shadow=0;comic=0;fontFamily=Verdana;fontSize=12;flipV=1;" parent="1" vertex="1">
          <mxGeometry x="1270" y="405" width="80" height="85" as="geometry" />
        </mxCell>
        <mxCell id="48ef80bc37b76060-326" value="" style="verticalLabelPosition=bottom;html=1;verticalAlign=top;align=center;strokeWidth=1;shape=mxgraph.floorplan.wall;fillColor=#000000;rounded=0;shadow=0;comic=0;fontFamily=Verdana;fontSize=12;" parent="1" vertex="1">
          <mxGeometry x="890" y="483" width="370" height="10" as="geometry" />
        </mxCell>
        <mxCell id="48ef80bc37b76060-327" value="" style="verticalLabelPosition=bottom;html=1;verticalAlign=top;align=center;strokeWidth=1;shape=mxgraph.floorplan.wall;fillColor=#000000;direction=south;rounded=0;shadow=0;comic=0;fontFamily=Verdana;fontSize=12;" parent="1" vertex="1">
          <mxGeometry x="470" y="253" width="612.5" height="244" as="geometry" />
        </mxCell>
        <mxCell id="48ef80bc37b76060-328" value="" style="group;rotation=90;" parent="1" vertex="1" connectable="0">
          <mxGeometry x="1140" y="260" width="80" height="70" as="geometry" />
        </mxCell>
        <mxCell id="48ef80bc37b76060-329" value="" style="verticalLabelPosition=bottom;html=1;verticalAlign=top;align=center;strokeWidth=1;shape=mxgraph.floorplan.office_chair;shadow=0;rounded=0;comic=0;fontFamily=Verdana;fontSize=12;rotation=90;" parent="48ef80bc37b76060-328" vertex="1">
          <mxGeometry x="35" y="14" width="40" height="43" as="geometry" />
        </mxCell>
        <mxCell id="48ef80bc37b76060-330" value="" style="shape=rect;shadow=0;rounded=0;comic=0;fontFamily=Verdana;fontSize=12;align=center;html=1;rotation=90;" parent="48ef80bc37b76060-328" vertex="1">
          <mxGeometry x="-10" y="10" width="80" height="50" as="geometry" />
        </mxCell>
        <mxCell id="48ef80bc37b76060-331" value="" style="verticalLabelPosition=bottom;html=1;verticalAlign=top;align=center;strokeWidth=1;shape=mxgraph.floorplan.workstation;shadow=0;flipV=1;rounded=0;comic=0;fontFamily=Verdana;fontSize=12;rotation=90;" parent="48ef80bc37b76060-328" vertex="1">
          <mxGeometry y="15" width="50" height="40" as="geometry" />
        </mxCell>
        <mxCell id="48ef80bc37b76060-332" value="" style="verticalLabelPosition=bottom;html=1;verticalAlign=top;align=center;strokeWidth=1;shape=mxgraph.floorplan.dresser;rounded=0;shadow=0;comic=0;fontFamily=Verdana;fontSize=12;rotation=-90;" parent="1" vertex="1">
          <mxGeometry x="1128.65" y="400" width="100" height="65" as="geometry" />
        </mxCell>
        <mxCell id="48ef80bc37b76060-333" value="" style="verticalLabelPosition=bottom;html=1;verticalAlign=top;align=center;strokeWidth=1;shape=mxgraph.floorplan.plant;rounded=0;shadow=0;comic=0;fontFamily=Verdana;fontSize=12;" parent="1" vertex="1">
          <mxGeometry x="1301.35" y="260" width="47" height="51" as="geometry" />
        </mxCell>
        <mxCell id="48ef80bc37b76060-343" value="" style="verticalLabelPosition=bottom;html=1;verticalAlign=top;align=center;strokeWidth=1;shape=mxgraph.floorplan.toilet;rounded=0;shadow=0;comic=0;fontFamily=Verdana;fontSize=12;rotation=-90;" parent="1" vertex="1">
          <mxGeometry x="1115" y="626" width="50" height="67" as="geometry" />
        </mxCell>
        <mxCell id="48ef80bc37b76060-344" value="" style="verticalLabelPosition=bottom;html=1;verticalAlign=top;align=center;strokeWidth=1;shape=mxgraph.floorplan.wall;fillColor=#000000;direction=south;rounded=0;shadow=0;comic=0;fontFamily=Verdana;fontSize=12;" parent="1" vertex="1">
          <mxGeometry x="1420.5" y="707" width="10" height="443" as="geometry" />
        </mxCell>
        <mxCell id="48ef80bc37b76060-345" value="" style="verticalLabelPosition=bottom;html=1;verticalAlign=top;align=center;strokeWidth=1;shape=mxgraph.floorplan.toilet;rounded=0;shadow=0;comic=0;fontFamily=Verdana;fontSize=12;rotation=-90;" parent="1" vertex="1">
          <mxGeometry x="1115" y="725" width="50" height="67" as="geometry" />
        </mxCell>
        <mxCell id="48ef80bc37b76060-346" value="" style="verticalLabelPosition=bottom;html=1;verticalAlign=top;align=center;strokeWidth=1;shape=mxgraph.floorplan.wall;fillColor=#000000;rounded=0;shadow=1;comic=0;fontFamily=Verdana;fontSize=12;" parent="1" vertex="1">
          <mxGeometry x="1119" y="807" width="181" height="10" as="geometry" />
        </mxCell>
        <mxCell id="48ef80bc37b76060-348" value="" style="verticalLabelPosition=bottom;html=1;verticalAlign=top;align=center;strokeWidth=1;shape=mxgraph.floorplan.doorLeft;rounded=0;shadow=0;comic=0;fillColor=#FFFFFF;fontFamily=Verdana;fontSize=12;rotation=90;" parent="1" vertex="1">
          <mxGeometry x="1206.5" y="604.5" width="91" height="96" as="geometry" />
        </mxCell>
        <mxCell id="wg97oQD3bBHlLkcqE0PM-1" style="edgeStyle=orthogonalEdgeStyle;rounded=0;orthogonalLoop=1;jettySize=auto;html=1;" parent="1" source="48ef80bc37b76060-354" edge="1">
          <mxGeometry relative="1" as="geometry">
            <mxPoint x="1397" y="720" as="targetPoint" />
          </mxGeometry>
        </mxCell>
        <mxCell id="48ef80bc37b76060-349" value="" style="verticalLabelPosition=bottom;html=1;verticalAlign=top;align=center;strokeWidth=1;shape=mxgraph.floorplan.doorLeft;rounded=0;shadow=0;comic=0;fillColor=#FFFFFF;fontFamily=Verdana;fontSize=12;rotation=90;" parent="1" vertex="1">
          <mxGeometry x="1208" y="709" width="90" height="92.73" as="geometry" />
        </mxCell>
        <mxCell id="48ef80bc37b76060-355" value="" style="verticalLabelPosition=bottom;html=1;verticalAlign=top;align=center;strokeWidth=1;shape=mxgraph.floorplan.sink_2;rounded=0;shadow=0;comic=0;fontFamily=Verdana;fontSize=12;rotation=90;" parent="1" vertex="1">
          <mxGeometry x="1372" y="757" width="40" height="35" as="geometry" />
        </mxCell>
        <mxCell id="48ef80bc37b76060-359" value="" style="verticalLabelPosition=bottom;html=1;verticalAlign=top;align=center;strokeWidth=1;shape=mxgraph.floorplan.wallCorner;fillColor=#000000;direction=south;rounded=0;shadow=0;comic=0;fontFamily=Verdana;fontSize=12;" parent="1" vertex="1">
          <mxGeometry x="1104.5" y="593" width="326" height="114" as="geometry" />
        </mxCell>
        <mxCell id="48ef80bc37b76060-360" value="" style="verticalLabelPosition=bottom;html=1;verticalAlign=top;align=center;strokeWidth=1;shape=mxgraph.floorplan.doorLeft;rounded=0;shadow=0;comic=0;fillColor=#FFFFFF;fontFamily=Verdana;fontSize=12;rotation=90;" parent="1" vertex="1">
          <mxGeometry x="1206.25" y="816.75" width="94.75" height="91.25" as="geometry" />
        </mxCell>
        <mxCell id="48ef80bc37b76060-362" value="" style="verticalLabelPosition=bottom;html=1;verticalAlign=top;align=center;strokeWidth=1;shape=mxgraph.floorplan.wall;fillColor=#000000;rounded=0;shadow=0;comic=0;fontFamily=Verdana;fontSize=12;" parent="1" vertex="1">
          <mxGeometry x="1119" y="909" width="181" height="10" as="geometry" />
        </mxCell>
        <mxCell id="48ef80bc37b76060-367" value="" style="verticalLabelPosition=bottom;html=1;verticalAlign=top;align=center;strokeWidth=1;shape=mxgraph.floorplan.toilet;rounded=0;shadow=0;comic=0;fontFamily=Verdana;fontSize=12;rotation=-90;" parent="1" vertex="1">
          <mxGeometry x="1128.65" y="829" width="50" height="67" as="geometry" />
        </mxCell>
        <mxCell id="48ef80bc37b76060-370" value="" style="verticalLabelPosition=bottom;html=1;verticalAlign=top;align=center;strokeWidth=1;shape=mxgraph.floorplan.sink_2;rounded=0;shadow=0;comic=0;fontFamily=Verdana;fontSize=12;rotation=90;" parent="1" vertex="1">
          <mxGeometry x="1372" y="637" width="40" height="35" as="geometry" />
        </mxCell>
        <mxCell id="48ef80bc37b76060-371" value="" style="verticalLabelPosition=bottom;html=1;verticalAlign=top;align=center;strokeWidth=1;shape=mxgraph.floorplan.doorRight;rounded=0;shadow=0;comic=0;fontFamily=Verdana;fontSize=12;rotation=90;flipV=0;flipH=1;" parent="1" vertex="1">
          <mxGeometry x="1210.78" y="911.84" width="90.57" height="89.88" as="geometry" />
        </mxCell>
        <mxCell id="48ef80bc37b76060-373" value="" style="verticalLabelPosition=bottom;html=1;verticalAlign=top;align=center;strokeWidth=1;shape=mxgraph.floorplan.wall;fillColor=#000000;rounded=0;shadow=0;comic=0;fontFamily=Verdana;fontSize=12;" parent="1" vertex="1">
          <mxGeometry x="1115" y="700" width="185" height="10" as="geometry" />
        </mxCell>
        <mxCell id="48ef80bc37b76060-374" value="" style="verticalLabelPosition=bottom;html=1;verticalAlign=top;align=center;strokeWidth=1;shape=mxgraph.floorplan.chair;shadow=0;rounded=0;comic=0;fontFamily=Verdana;fontSize=12;" parent="1" vertex="1">
          <mxGeometry x="1604.5" y="631" width="40" height="52" as="geometry" />
        </mxCell>
        <mxCell id="48ef80bc37b76060-375" value="" style="verticalLabelPosition=bottom;html=1;verticalAlign=top;align=center;strokeWidth=1;shape=mxgraph.floorplan.chair;shadow=0;direction=west;rounded=0;comic=0;fontFamily=Verdana;fontSize=12;" parent="1" vertex="1">
          <mxGeometry x="1608" y="738" width="40" height="52" as="geometry" />
        </mxCell>
        <mxCell id="48ef80bc37b76060-376" value="" style="verticalLabelPosition=bottom;html=1;verticalAlign=top;align=center;strokeWidth=1;shape=mxgraph.floorplan.chair;shadow=0;direction=north;rounded=0;comic=0;fontFamily=Verdana;fontSize=12;" parent="1" vertex="1">
          <mxGeometry x="1540" y="687" width="52" height="40" as="geometry" />
        </mxCell>
        <mxCell id="48ef80bc37b76060-377" value="" style="verticalLabelPosition=bottom;html=1;verticalAlign=top;align=center;strokeWidth=1;shape=mxgraph.floorplan.chair;shadow=0;direction=south;rounded=0;comic=0;fontFamily=Verdana;fontSize=12;" parent="1" vertex="1">
          <mxGeometry x="1664" y="683" width="52" height="40" as="geometry" />
        </mxCell>
        <mxCell id="48ef80bc37b76060-378" value="" style="shape=ellipse;shadow=0;rounded=0;comic=0;fontFamily=Verdana;fontSize=12;align=center;html=1;" parent="1" vertex="1">
          <mxGeometry x="1574.5" y="657" width="100" height="100" as="geometry" />
        </mxCell>
        <mxCell id="48ef80bc37b76060-379" value="" style="verticalLabelPosition=bottom;html=1;verticalAlign=top;align=center;strokeWidth=1;shape=mxgraph.floorplan.chair;shadow=0;rounded=0;comic=0;fontFamily=Verdana;fontSize=12;" parent="1" vertex="1">
          <mxGeometry x="1604.5" y="845" width="40" height="52" as="geometry" />
        </mxCell>
        <mxCell id="48ef80bc37b76060-380" value="" style="verticalLabelPosition=bottom;html=1;verticalAlign=top;align=center;strokeWidth=1;shape=mxgraph.floorplan.chair;shadow=0;direction=west;rounded=0;comic=0;fontFamily=Verdana;fontSize=12;" parent="1" vertex="1">
          <mxGeometry x="1602" y="967" width="40" height="52" as="geometry" />
        </mxCell>
        <mxCell id="48ef80bc37b76060-381" value="" style="verticalLabelPosition=bottom;html=1;verticalAlign=top;align=center;strokeWidth=1;shape=mxgraph.floorplan.chair;shadow=0;direction=north;rounded=0;comic=0;fontFamily=Verdana;fontSize=12;" parent="1" vertex="1">
          <mxGeometry x="1548" y="908" width="52" height="40" as="geometry" />
        </mxCell>
        <mxCell id="48ef80bc37b76060-382" value="" style="verticalLabelPosition=bottom;html=1;verticalAlign=top;align=center;strokeWidth=1;shape=mxgraph.floorplan.chair;shadow=0;direction=south;rounded=0;comic=0;fontFamily=Verdana;fontSize=12;" parent="1" vertex="1">
          <mxGeometry x="1653" y="902" width="52" height="40" as="geometry" />
        </mxCell>
        <mxCell id="48ef80bc37b76060-383" value="" style="shape=ellipse;shadow=0;rounded=0;comic=0;fontFamily=Verdana;fontSize=12;align=center;html=1;" parent="1" vertex="1">
          <mxGeometry x="1573" y="872" width="100" height="100" as="geometry" />
        </mxCell>
        <mxCell id="48ef80bc37b76060-385" value="" style="verticalLabelPosition=bottom;html=1;verticalAlign=top;align=center;strokeWidth=1;shape=mxgraph.floorplan.refrigerator;rounded=0;shadow=0;comic=0;fontFamily=Verdana;fontSize=12;rotation=90;flipV=0;flipH=1;" parent="1" vertex="1">
          <mxGeometry x="2111" y="687" width="60" height="62" as="geometry" />
        </mxCell>
        <mxCell id="48ef80bc37b76060-386" value="" style="verticalLabelPosition=bottom;html=1;verticalAlign=top;align=center;strokeWidth=1;shape=mxgraph.floorplan.refrigerator;rounded=0;shadow=0;comic=0;fontFamily=Verdana;fontSize=12;rotation=90;" parent="1" vertex="1">
          <mxGeometry x="2114" y="621.5" width="60" height="62" as="geometry" />
        </mxCell>
        <mxCell id="48ef80bc37b76060-387" value="" style="verticalLabelPosition=bottom;html=1;verticalAlign=top;align=center;strokeWidth=1;shape=mxgraph.floorplan.range_2;rounded=0;shadow=0;comic=0;fontFamily=Verdana;fontSize=12;rotation=90;" parent="1" vertex="1">
          <mxGeometry x="2124" y="739.73" width="34" height="62" as="geometry" />
        </mxCell>
        <mxCell id="48ef80bc37b76060-388" value="" style="verticalLabelPosition=bottom;html=1;verticalAlign=top;align=center;strokeWidth=1;shape=mxgraph.floorplan.sink_double;rounded=0;shadow=0;comic=0;fontFamily=Verdana;fontSize=12;flipV=1;" parent="1" vertex="1">
          <mxGeometry x="1902" y="861" width="80" height="35" as="geometry" />
        </mxCell>
        <mxCell id="48ef80bc37b76060-390" value="" style="verticalLabelPosition=bottom;html=1;verticalAlign=top;align=center;strokeWidth=1;shape=mxgraph.floorplan.dresser;rounded=0;shadow=0;comic=0;fontFamily=Verdana;fontSize=12;flipV=1;" parent="1" vertex="1">
          <mxGeometry x="1812" y="845" width="100" height="65" as="geometry" />
        </mxCell>
        <mxCell id="48ef80bc37b76060-391" value="" style="verticalLabelPosition=bottom;html=1;verticalAlign=top;align=center;strokeWidth=1;shape=mxgraph.floorplan.wallCorner;fillColor=#000000;direction=north;rounded=0;shadow=0;comic=0;fontFamily=Verdana;fontSize=12;" parent="1" vertex="1">
          <mxGeometry x="1868" y="1023.5" width="312" height="120" as="geometry" />
        </mxCell>
        <mxCell id="48ef80bc37b76060-396" value="" style="verticalLabelPosition=bottom;html=1;verticalAlign=top;align=center;strokeWidth=1;shape=mxgraph.floorplan.wall;fillColor=#000000;rounded=0;shadow=0;comic=0;fontFamily=Verdana;fontSize=12;" parent="1" vertex="1">
          <mxGeometry x="2174" y="631" width="20" height="10" as="geometry" />
        </mxCell>
        <mxCell id="48ef80bc37b76060-7" value="" style="verticalLabelPosition=bottom;html=1;verticalAlign=top;align=center;strokeWidth=1;shape=mxgraph.floorplan.office_chair;shadow=0;rounded=0;comic=0;fontFamily=Verdana;fontSize=12;" parent="1" vertex="1">
          <mxGeometry x="1387" y="1372" width="40" height="43" as="geometry" />
        </mxCell>
        <mxCell id="48ef80bc37b76060-8" value="" style="shape=rect;shadow=0;rounded=0;comic=0;fontFamily=Verdana;fontSize=12;align=center;html=1;" parent="1" vertex="1">
          <mxGeometry x="1367" y="1392" width="80" height="50" as="geometry" />
        </mxCell>
        <mxCell id="48ef80bc37b76060-9" value="" style="verticalLabelPosition=bottom;html=1;verticalAlign=top;align=center;strokeWidth=1;shape=mxgraph.floorplan.workstation;shadow=0;flipV=1;rounded=0;comic=0;fontFamily=Verdana;fontSize=12;" parent="1" vertex="1">
          <mxGeometry x="1382" y="1402" width="50" height="40" as="geometry" />
        </mxCell>
        <mxCell id="aS9gSS6VlltqCKYZbIH9-6" value="" style="verticalLabelPosition=bottom;html=1;verticalAlign=top;align=center;shape=mxgraph.floorplan.wall;fillColor=strokeColor;direction=south;" parent="1" vertex="1">
          <mxGeometry x="1105" y="600" width="10" height="550" as="geometry" />
        </mxCell>
        <mxCell id="aS9gSS6VlltqCKYZbIH9-8" value="" style="verticalLabelPosition=bottom;html=1;verticalAlign=top;align=center;shape=mxgraph.floorplan.wall;fillColor=strokeColor;" parent="1" vertex="1">
          <mxGeometry x="403" y="1220" width="967" height="10" as="geometry" />
        </mxCell>
        <mxCell id="aS9gSS6VlltqCKYZbIH9-9" value="" style="verticalLabelPosition=bottom;html=1;verticalAlign=top;align=center;shape=mxgraph.floorplan.plant;" parent="1" vertex="1">
          <mxGeometry x="1380" y="875" width="47" height="51" as="geometry" />
        </mxCell>
        <mxCell id="aS9gSS6VlltqCKYZbIH9-10" value="" style="verticalLabelPosition=bottom;html=1;verticalAlign=top;align=center;shape=mxgraph.floorplan.plant;" parent="1" vertex="1">
          <mxGeometry x="710" y="1116" width="47" height="51" as="geometry" />
        </mxCell>
        <mxCell id="aS9gSS6VlltqCKYZbIH9-11" value="" style="verticalLabelPosition=bottom;html=1;verticalAlign=top;align=center;shape=mxgraph.floorplan.shower2;" parent="1" vertex="1">
          <mxGeometry x="810" y="1116" width="100" height="100" as="geometry" />
        </mxCell>
        <mxCell id="aS9gSS6VlltqCKYZbIH9-12" value="" style="verticalLabelPosition=bottom;html=1;verticalAlign=top;align=center;shape=mxgraph.floorplan.office_chair;rotation=-90;" parent="1" vertex="1">
          <mxGeometry x="443" y="874" width="40" height="43" as="geometry" />
        </mxCell>
        <mxCell id="aS9gSS6VlltqCKYZbIH9-13" value="" style="verticalLabelPosition=bottom;html=1;verticalAlign=top;align=center;shape=mxgraph.floorplan.office_chair;rotation=-90;" parent="1" vertex="1">
          <mxGeometry x="443" y="957" width="40" height="43" as="geometry" />
        </mxCell>
        <mxCell id="aS9gSS6VlltqCKYZbIH9-14" value="" style="verticalLabelPosition=bottom;html=1;verticalAlign=top;align=center;shape=mxgraph.floorplan.office_chair;" parent="1" vertex="1">
          <mxGeometry x="1560" y="1410" width="40" height="43" as="geometry" />
        </mxCell>
        <mxCell id="aS9gSS6VlltqCKYZbIH9-15" value="" style="verticalLabelPosition=bottom;html=1;verticalAlign=top;align=center;shape=mxgraph.floorplan.office_chair;rotation=-90;" parent="1" vertex="1">
          <mxGeometry x="440" y="1051" width="40" height="43" as="geometry" />
        </mxCell>
        <mxCell id="aS9gSS6VlltqCKYZbIH9-18" value="" style="verticalLabelPosition=bottom;html=1;verticalAlign=top;align=center;shape=mxgraph.floorplan.doorRight;aspect=fixed;rotation=-179;" parent="1" vertex="1">
          <mxGeometry x="1320" y="960" width="101.67" height="183" as="geometry" />
        </mxCell>
        <mxCell id="aS9gSS6VlltqCKYZbIH9-21" value="" style="verticalLabelPosition=bottom;html=1;verticalAlign=top;align=center;shape=mxgraph.floorplan.wall;fillColor=strokeColor;" parent="1" vertex="1">
          <mxGeometry x="400" y="485" width="200" height="10" as="geometry" />
        </mxCell>
        <mxCell id="aS9gSS6VlltqCKYZbIH9-23" value="" style="verticalLabelPosition=bottom;html=1;verticalAlign=top;align=center;shape=mxgraph.floorplan.doorDouble;aspect=fixed;rotation=-89;" parent="1" vertex="1">
          <mxGeometry x="328.85" y="569.3" width="290.97" height="154.58" as="geometry" />
        </mxCell>
        <mxCell id="aS9gSS6VlltqCKYZbIH9-24" value="" style="verticalLabelPosition=bottom;html=1;verticalAlign=top;align=center;shape=mxgraph.floorplan.wall;fillColor=strokeColor;" parent="1" vertex="1">
          <mxGeometry x="410" y="230" width="2040" height="10" as="geometry" />
        </mxCell>
        <mxCell id="aS9gSS6VlltqCKYZbIH9-25" value="" style="verticalLabelPosition=bottom;html=1;verticalAlign=top;align=center;shape=mxgraph.floorplan.wall;fillColor=strokeColor;direction=south;" parent="1" vertex="1">
          <mxGeometry x="403" y="230" width="10" height="250" as="geometry" />
        </mxCell>
        <mxCell id="48ef80bc37b76060-354" value="" style="verticalLabelPosition=bottom;html=1;verticalAlign=top;align=center;strokeWidth=1;shape=mxgraph.floorplan.sink_2;rounded=0;shadow=0;comic=0;fontFamily=Verdana;fontSize=12;rotation=90;" parent="1" vertex="1">
          <mxGeometry x="1372" y="695" width="40" height="35" as="geometry" />
        </mxCell>
        <mxCell id="wg97oQD3bBHlLkcqE0PM-7" value="" style="verticalLabelPosition=bottom;html=1;verticalAlign=top;align=center;shape=mxgraph.floorplan.toilet;rotation=-90;" parent="1" vertex="1">
          <mxGeometry x="1128.65" y="926" width="50" height="67" as="geometry" />
        </mxCell>
        <mxCell id="wg97oQD3bBHlLkcqE0PM-15" value="" style="verticalLabelPosition=bottom;html=1;verticalAlign=top;align=center;strokeWidth=1;shape=mxgraph.floorplan.wall;fillColor=#000000;rounded=0;shadow=0;comic=0;fontFamily=Verdana;fontSize=12;" parent="1" vertex="1">
          <mxGeometry x="1113.0000000000005" y="1000" width="185" height="10" as="geometry" />
        </mxCell>
        <mxCell id="wg97oQD3bBHlLkcqE0PM-16" value="" style="verticalLabelPosition=bottom;html=1;verticalAlign=top;align=center;shape=mxgraph.floorplan.sink_double2;rotation=90;" parent="1" vertex="1">
          <mxGeometry x="1095" y="1051" width="80" height="35" as="geometry" />
        </mxCell>
        <mxCell id="wg97oQD3bBHlLkcqE0PM-17" value="" style="verticalLabelPosition=bottom;html=1;verticalAlign=top;align=center;strokeWidth=1;shape=mxgraph.floorplan.wall;fillColor=#000000;rounded=0;shadow=0;comic=0;fontFamily=Verdana;fontSize=12;" parent="1" vertex="1">
          <mxGeometry x="1100" y="1133" width="220" height="10" as="geometry" />
        </mxCell>
        <mxCell id="wg97oQD3bBHlLkcqE0PM-18" value="" style="verticalLabelPosition=bottom;html=1;verticalAlign=top;align=center;strokeWidth=1;shape=mxgraph.floorplan.wall;fillColor=#000000;rounded=0;shadow=0;comic=0;fontFamily=Verdana;fontSize=12;rotation=90;" parent="1" vertex="1">
          <mxGeometry x="275.75" y="1345.75" width="244.5" height="10" as="geometry" />
        </mxCell>
        <mxCell id="AbRCZ7nQIa33Vz6rQVh2-1" value="&lt;div&gt;RECEPÇÃO&lt;/div&gt;&lt;div&gt;&lt;br&gt;&lt;/div&gt;" style="text;strokeColor=none;fillColor=none;html=1;fontSize=24;fontStyle=1;verticalAlign=middle;align=center;" parent="1" vertex="1">
          <mxGeometry x="703" y="568" width="237" height="40" as="geometry" />
        </mxCell>
        <mxCell id="AbRCZ7nQIa33Vz6rQVh2-2" value="RAIO X&lt;div&gt;&lt;br&gt;&lt;/div&gt;" style="text;strokeColor=none;fillColor=none;html=1;fontSize=24;fontStyle=1;verticalAlign=middle;align=center;" parent="1" vertex="1">
          <mxGeometry x="491.5" y="310" width="237" height="37" as="geometry" />
        </mxCell>
        <mxCell id="AbRCZ7nQIa33Vz6rQVh2-3" value="&lt;div&gt;SALA DE ESPERA&lt;/div&gt;&lt;div&gt;&lt;br&gt;&lt;/div&gt;" style="text;strokeColor=none;fillColor=none;html=1;fontSize=24;fontStyle=1;verticalAlign=middle;align=center;" parent="1" vertex="1">
          <mxGeometry x="703" y="977" width="237" height="40" as="geometry" />
        </mxCell>
        <mxCell id="AbRCZ7nQIa33Vz6rQVh2-11" style="edgeStyle=orthogonalEdgeStyle;rounded=0;orthogonalLoop=1;jettySize=auto;html=1;exitX=0.5;exitY=1;exitDx=0;exitDy=0;" parent="1" source="AbRCZ7nQIa33Vz6rQVh2-4" edge="1">
          <mxGeometry relative="1" as="geometry">
            <mxPoint x="930" y="1330" as="targetPoint" />
          </mxGeometry>
        </mxCell>
        <mxCell id="AbRCZ7nQIa33Vz6rQVh2-4" value="&lt;div&gt;ADMINISTRAÇÃO&lt;/div&gt;" style="text;strokeColor=none;fillColor=none;html=1;fontSize=24;fontStyle=1;verticalAlign=middle;align=center;" parent="1" vertex="1">
          <mxGeometry x="845.5" y="1342" width="237" height="40" as="geometry" />
        </mxCell>
        <mxCell id="AbRCZ7nQIa33Vz6rQVh2-6" value="" style="group" parent="1" vertex="1" connectable="0">
          <mxGeometry x="1140" y="1370" width="80" height="70" as="geometry" />
        </mxCell>
        <mxCell id="AbRCZ7nQIa33Vz6rQVh2-7" value="" style="verticalLabelPosition=bottom;html=1;verticalAlign=top;align=center;strokeWidth=1;shape=mxgraph.floorplan.office_chair;shadow=0;rounded=0;comic=0;fontFamily=Verdana;fontSize=12;" parent="AbRCZ7nQIa33Vz6rQVh2-6" vertex="1">
          <mxGeometry x="20" width="40" height="43" as="geometry" />
        </mxCell>
        <mxCell id="AbRCZ7nQIa33Vz6rQVh2-8" value="" style="shape=rect;shadow=0;rounded=0;comic=0;fontFamily=Verdana;fontSize=12;align=center;html=1;" parent="AbRCZ7nQIa33Vz6rQVh2-6" vertex="1">
          <mxGeometry y="20" width="80" height="50" as="geometry" />
        </mxCell>
        <mxCell id="AbRCZ7nQIa33Vz6rQVh2-9" value="" style="verticalLabelPosition=bottom;html=1;verticalAlign=top;align=center;strokeWidth=1;shape=mxgraph.floorplan.workstation;shadow=0;flipV=1;rounded=0;comic=0;fontFamily=Verdana;fontSize=12;" parent="AbRCZ7nQIa33Vz6rQVh2-6" vertex="1">
          <mxGeometry x="15" y="30" width="50" height="40" as="geometry" />
        </mxCell>
        <mxCell id="AbRCZ7nQIa33Vz6rQVh2-13" value="&lt;div&gt;COPA&lt;span style=&quot;color: rgba(0, 0, 0, 0); font-family: monospace; font-size: 0px; font-weight: 400; text-align: start; background-color: transparent;&quot;&gt;%3CmxGraphModel%3E%3Croot%3E%3CmxCell%20id%3D%220%22%2F%3E%3CmxCell%20id%3D%221%22%20parent%3D%220%22%2F%3E%3CmxCell%20id%3D%222%22%20value%3D%22RAIO%20X%26lt%3Bdiv%26gt%3B%26lt%3Bbr%26gt%3B%26lt%3B%2Fdiv%26gt%3B%22%20style%3D%22text%3BstrokeColor%3Dnone%3BfillColor%3Dnone%3Bhtml%3D1%3BfontSize%3D24%3BfontStyle%3D1%3BverticalAlign%3Dmiddle%3Balign%3Dcenter%3B%22%20vertex%3D%221%22%20parent%3D%221%22%3E%3CmxGeometry%20x%3D%22782%22%20y%3D%22303%22%20width%3D%22237%22%20height%3D%2237%22%20as%3D%22geometry%22%2F%3E%3C%2FmxCell%3E%3C%2Froot%3E%3C%2FmxGraphModel%3E&lt;/span&gt;&lt;/div&gt;" style="text;strokeColor=none;fillColor=none;html=1;fontSize=24;fontStyle=1;verticalAlign=middle;align=center;" parent="1" vertex="1">
          <mxGeometry x="1511.5" y="821" width="237" height="37" as="geometry" />
        </mxCell>
        <mxCell id="AbRCZ7nQIa33Vz6rQVh2-14" value="&lt;div&gt;SALA REUNIAO&lt;/div&gt;" style="text;strokeColor=none;fillColor=none;html=1;fontSize=24;fontStyle=1;verticalAlign=middle;align=center;" parent="1" vertex="1">
          <mxGeometry x="1633.5" y="1343" width="237" height="37" as="geometry" />
        </mxCell>
        <mxCell id="AbRCZ7nQIa33Vz6rQVh2-15" value="&lt;div&gt;BANHEIROS&lt;/div&gt;" style="text;strokeColor=none;fillColor=none;html=1;fontSize=24;fontStyle=1;verticalAlign=middle;align=center;" parent="1" vertex="1">
          <mxGeometry x="1113" y="1039" width="237" height="37" as="geometry" />
        </mxCell>
        <mxCell id="48ef80bc37b76060-164" value="" style="verticalLabelPosition=bottom;html=1;verticalAlign=top;align=center;strokeWidth=1;shape=mxgraph.floorplan.doorLeft;rounded=0;shadow=0;comic=0;fontFamily=Verdana;fontSize=12;" parent="1" vertex="1">
          <mxGeometry x="1372" y="1216" width="80" height="85" as="geometry" />
        </mxCell>
        <mxCell id="AbRCZ7nQIa33Vz6rQVh2-16" value="" style="verticalLabelPosition=bottom;html=1;verticalAlign=top;align=center;strokeWidth=1;shape=mxgraph.floorplan.doorLeft;rounded=0;shadow=0;comic=0;fontFamily=Verdana;fontSize=12;direction=north;" parent="1" vertex="1">
          <mxGeometry x="1438.5" y="1070" width="85" height="80" as="geometry" />
        </mxCell>
        <mxCell id="Fn2rYvCM5hyePDwb1TG5-1" value="" style="verticalLabelPosition=bottom;html=1;verticalAlign=top;align=center;shape=mxgraph.floorplan.office_chair;rotation=-90;" vertex="1" parent="1">
          <mxGeometry x="510" y="876" width="40" height="43" as="geometry" />
        </mxCell>
        <mxCell id="Fn2rYvCM5hyePDwb1TG5-2" value="" style="verticalLabelPosition=bottom;html=1;verticalAlign=top;align=center;shape=mxgraph.floorplan.office_chair;rotation=-90;" vertex="1" parent="1">
          <mxGeometry x="513" y="967" width="40" height="43" as="geometry" />
        </mxCell>
        <mxCell id="Fn2rYvCM5hyePDwb1TG5-3" value="" style="verticalLabelPosition=bottom;html=1;verticalAlign=top;align=center;shape=mxgraph.floorplan.office_chair;rotation=-90;" vertex="1" parent="1">
          <mxGeometry x="575" y="880" width="40" height="43" as="geometry" />
        </mxCell>
        <mxCell id="Fn2rYvCM5hyePDwb1TG5-4" value="" style="verticalLabelPosition=bottom;html=1;verticalAlign=top;align=center;shape=mxgraph.floorplan.office_chair;rotation=-90;" vertex="1" parent="1">
          <mxGeometry x="590" y="961" width="40" height="43" as="geometry" />
        </mxCell>
        <mxCell id="Fn2rYvCM5hyePDwb1TG5-5" value="" style="verticalLabelPosition=bottom;html=1;verticalAlign=top;align=center;shape=mxgraph.floorplan.office_chair;rotation=-90;" vertex="1" parent="1">
          <mxGeometry x="580" y="1047" width="40" height="43" as="geometry" />
        </mxCell>
        <mxCell id="Fn2rYvCM5hyePDwb1TG5-6" value="" style="verticalLabelPosition=bottom;html=1;verticalAlign=top;align=center;shape=mxgraph.floorplan.office_chair;rotation=-90;" vertex="1" parent="1">
          <mxGeometry x="513" y="1052.5" width="40" height="43" as="geometry" />
        </mxCell>
        <mxCell id="Fn2rYvCM5hyePDwb1TG5-7" value="" style="verticalLabelPosition=bottom;html=1;verticalAlign=top;align=center;strokeWidth=1;shape=mxgraph.floorplan.doorRight;rounded=0;shadow=0;comic=0;fontFamily=Verdana;fontSize=12;flipV=1;" vertex="1" parent="1">
          <mxGeometry x="677" y="405" width="80" height="85" as="geometry" />
        </mxCell>
        <mxCell id="Fn2rYvCM5hyePDwb1TG5-8" value="" style="verticalLabelPosition=bottom;html=1;verticalAlign=top;align=center;strokeWidth=1;shape=mxgraph.floorplan.dresser;rounded=0;shadow=0;comic=0;fontFamily=Verdana;fontSize=12;rotation=-90;" vertex="1" parent="1">
          <mxGeometry x="930" y="400" width="100" height="65" as="geometry" />
        </mxCell>
        <mxCell id="Fn2rYvCM5hyePDwb1TG5-9" value="" style="group;rotation=90;" vertex="1" connectable="0" parent="1">
          <mxGeometry x="1206.25" y="283.5" width="80" height="70" as="geometry" />
        </mxCell>
        <mxCell id="Fn2rYvCM5hyePDwb1TG5-10" value="" style="verticalLabelPosition=bottom;html=1;verticalAlign=top;align=center;strokeWidth=1;shape=mxgraph.floorplan.office_chair;shadow=0;rounded=0;comic=0;fontFamily=Verdana;fontSize=12;rotation=90;" vertex="1" parent="Fn2rYvCM5hyePDwb1TG5-9">
          <mxGeometry x="35" y="14" width="40" height="43" as="geometry" />
        </mxCell>
        <mxCell id="Fn2rYvCM5hyePDwb1TG5-11" value="" style="shape=rect;shadow=0;rounded=0;comic=0;fontFamily=Verdana;fontSize=12;align=center;html=1;rotation=90;" vertex="1" parent="1">
          <mxGeometry x="835.5" y="297" width="80" height="50" as="geometry" />
        </mxCell>
        <mxCell id="Fn2rYvCM5hyePDwb1TG5-14" value="" style="verticalLabelPosition=bottom;html=1;verticalAlign=top;align=center;strokeWidth=1;shape=mxgraph.floorplan.wall;fillColor=#000000;direction=south;rounded=0;shadow=0;comic=0;fontFamily=Verdana;fontSize=12;" vertex="1" parent="1">
          <mxGeometry x="1010" y="230" width="148.65" height="250" as="geometry" />
        </mxCell>
        <mxCell id="Fn2rYvCM5hyePDwb1TG5-15" value="" style="verticalLabelPosition=bottom;html=1;verticalAlign=top;align=center;strokeWidth=1;shape=mxgraph.floorplan.doorRight;rounded=0;shadow=0;comic=0;fontFamily=Verdana;fontSize=12;flipV=1;" vertex="1" parent="1">
          <mxGeometry x="801" y="410" width="89" height="85" as="geometry" />
        </mxCell>
        <mxCell id="Fn2rYvCM5hyePDwb1TG5-18" value="" style="group;rotation=90;" vertex="1" connectable="0" parent="1">
          <mxGeometry x="840" y="283" width="80" height="70" as="geometry" />
        </mxCell>
        <mxCell id="Fn2rYvCM5hyePDwb1TG5-19" value="" style="verticalLabelPosition=bottom;html=1;verticalAlign=top;align=center;strokeWidth=1;shape=mxgraph.floorplan.office_chair;shadow=0;rounded=0;comic=0;fontFamily=Verdana;fontSize=12;rotation=90;" vertex="1" parent="Fn2rYvCM5hyePDwb1TG5-18">
          <mxGeometry x="35" y="14" width="40" height="43" as="geometry" />
        </mxCell>
        <mxCell id="Fn2rYvCM5hyePDwb1TG5-20" value="" style="shape=rect;shadow=0;rounded=0;comic=0;fontFamily=Verdana;fontSize=12;align=center;html=1;rotation=90;" vertex="1" parent="Fn2rYvCM5hyePDwb1TG5-18">
          <mxGeometry x="-10" y="10" width="80" height="50" as="geometry" />
        </mxCell>
        <mxCell id="Fn2rYvCM5hyePDwb1TG5-21" value="" style="verticalLabelPosition=bottom;html=1;verticalAlign=top;align=center;strokeWidth=1;shape=mxgraph.floorplan.workstation;shadow=0;flipV=1;rounded=0;comic=0;fontFamily=Verdana;fontSize=12;rotation=90;" vertex="1" parent="Fn2rYvCM5hyePDwb1TG5-18">
          <mxGeometry y="15" width="50" height="40" as="geometry" />
        </mxCell>
        <mxCell id="Fn2rYvCM5hyePDwb1TG5-27" value="" style="image;html=1;image=img/lib/clip_art/computers/Server_Rack_Empty_128x128.png" vertex="1" parent="1">
          <mxGeometry x="2104" y="1272.75" width="277" height="174.25" as="geometry" />
        </mxCell>
        <mxCell id="Fn2rYvCM5hyePDwb1TG5-30" value="&lt;div&gt;sala de hack&lt;/div&gt;&lt;div&gt;&lt;br&gt;&lt;/div&gt;" style="text;strokeColor=none;fillColor=none;html=1;fontSize=24;fontStyle=1;verticalAlign=middle;align=center;" vertex="1" parent="1">
          <mxGeometry x="1868" y="1220" width="449" height="211" as="geometry" />
        </mxCell>
        <mxCell id="Fn2rYvCM5hyePDwb1TG5-33" value="C1-RECEPT" style="ellipse;whiteSpace=wrap;html=1;aspect=fixed;" vertex="1" parent="1">
          <mxGeometry x="930" y="641" width="80" height="80" as="geometry" />
        </mxCell>
        <mxCell id="Fn2rYvCM5hyePDwb1TG5-35" value="" style="group;rotation=90;" vertex="1" connectable="0" parent="1">
          <mxGeometry x="430" y="270" width="80" height="70" as="geometry" />
        </mxCell>
        <mxCell id="Fn2rYvCM5hyePDwb1TG5-36" value="" style="verticalLabelPosition=bottom;html=1;verticalAlign=top;align=center;strokeWidth=1;shape=mxgraph.floorplan.office_chair;shadow=0;rounded=0;comic=0;fontFamily=Verdana;fontSize=12;rotation=90;" vertex="1" parent="Fn2rYvCM5hyePDwb1TG5-35">
          <mxGeometry x="35" y="14" width="40" height="43" as="geometry" />
        </mxCell>
        <mxCell id="Fn2rYvCM5hyePDwb1TG5-37" value="" style="shape=rect;shadow=0;rounded=0;comic=0;fontFamily=Verdana;fontSize=12;align=center;html=1;rotation=90;" vertex="1" parent="Fn2rYvCM5hyePDwb1TG5-35">
          <mxGeometry x="-10" y="10" width="80" height="50" as="geometry" />
        </mxCell>
        <mxCell id="Fn2rYvCM5hyePDwb1TG5-38" value="" style="verticalLabelPosition=bottom;html=1;verticalAlign=top;align=center;strokeWidth=1;shape=mxgraph.floorplan.workstation;shadow=0;flipV=1;rounded=0;comic=0;fontFamily=Verdana;fontSize=12;rotation=90;" vertex="1" parent="Fn2rYvCM5hyePDwb1TG5-35">
          <mxGeometry y="15" width="50" height="40" as="geometry" />
        </mxCell>
        <mxCell id="Fn2rYvCM5hyePDwb1TG5-40" value="C2-RECEPT" style="ellipse;whiteSpace=wrap;html=1;aspect=fixed;" vertex="1" parent="1">
          <mxGeometry x="939" y="757" width="80" height="80" as="geometry" />
        </mxCell>
        <mxCell id="Fn2rYvCM5hyePDwb1TG5-41" value="" style="image;aspect=fixed;perimeter=ellipsePerimeter;html=1;align=center;shadow=0;dashed=0;spacingTop=3;image=img/lib/active_directory/printer.svg;" vertex="1" parent="1">
          <mxGeometry x="865.5" y="869" width="50" height="33" as="geometry" />
        </mxCell>
        <mxCell id="Fn2rYvCM5hyePDwb1TG5-42" value="I&lt;span style=&quot;background-color: transparent; color: light-dark(rgb(0, 0, 0), rgb(255, 255, 255));&quot;&gt;-RECEPT&lt;/span&gt;" style="ellipse;whiteSpace=wrap;html=1;aspect=fixed;" vertex="1" parent="1">
          <mxGeometry x="930" y="908" width="80" height="80" as="geometry" />
        </mxCell>
        <mxCell id="Fn2rYvCM5hyePDwb1TG5-43" value="C1-ADM" style="ellipse;whiteSpace=wrap;html=1;aspect=fixed;" vertex="1" parent="1">
          <mxGeometry x="1140" y="1285.5" width="80" height="80" as="geometry" />
        </mxCell>
        <mxCell id="Fn2rYvCM5hyePDwb1TG5-44" value="C2-ADM" style="ellipse;whiteSpace=wrap;html=1;aspect=fixed;" vertex="1" parent="1">
          <mxGeometry x="1310" y="1303" width="77" height="77" as="geometry" />
        </mxCell>
        <mxCell id="Fn2rYvCM5hyePDwb1TG5-46" value="I-ADM" style="ellipse;whiteSpace=wrap;html=1;aspect=fixed;" vertex="1" parent="1">
          <mxGeometry x="648.5" y="1460" width="80" height="80" as="geometry" />
        </mxCell>
        <mxCell id="Fn2rYvCM5hyePDwb1TG5-47" value="C-RX" style="ellipse;whiteSpace=wrap;html=1;aspect=fixed;" vertex="1" parent="1">
          <mxGeometry x="323" y="297" width="80" height="80" as="geometry" />
        </mxCell>
        <mxCell id="Fn2rYvCM5hyePDwb1TG5-48" value="C-CON6" style="ellipse;whiteSpace=wrap;html=1;aspect=fixed;" vertex="1" parent="1">
          <mxGeometry x="2190" y="173" width="80" height="80" as="geometry" />
        </mxCell>
        <mxCell id="Fn2rYvCM5hyePDwb1TG5-49" value="C-CON5" style="ellipse;whiteSpace=wrap;html=1;aspect=fixed;" vertex="1" parent="1">
          <mxGeometry x="1951.5" y="176" width="80" height="80" as="geometry" />
        </mxCell>
        <mxCell id="Fn2rYvCM5hyePDwb1TG5-50" value="C-CON4" style="ellipse;whiteSpace=wrap;html=1;aspect=fixed;" vertex="1" parent="1">
          <mxGeometry x="1722" y="167" width="80" height="80" as="geometry" />
        </mxCell>
        <mxCell id="Fn2rYvCM5hyePDwb1TG5-51" value="C-CON3&lt;div&gt;&lt;br&gt;&lt;/div&gt;" style="ellipse;whiteSpace=wrap;html=1;aspect=fixed;" vertex="1" parent="1">
          <mxGeometry x="1468" y="173" width="80" height="80" as="geometry" />
        </mxCell>
        <mxCell id="Fn2rYvCM5hyePDwb1TG5-52" value="C-CON2&lt;div&gt;&lt;br&gt;&lt;/div&gt;" style="ellipse;whiteSpace=wrap;html=1;aspect=fixed;" vertex="1" parent="1">
          <mxGeometry x="1213.63" y="173" width="80" height="80" as="geometry" />
        </mxCell>
        <mxCell id="Fn2rYvCM5hyePDwb1TG5-53" value="C-CON1&lt;div&gt;&lt;br&gt;&lt;/div&gt;" style="ellipse;whiteSpace=wrap;html=1;aspect=fixed;" vertex="1" parent="1">
          <mxGeometry x="870" y="190" width="80" height="80" as="geometry" />
        </mxCell>
        <mxCell id="Fn2rYvCM5hyePDwb1TG5-54" value="P-REUN" style="ellipse;whiteSpace=wrap;html=1;aspect=fixed;" vertex="1" parent="1">
          <mxGeometry x="1722" y="1450" width="80" height="80" as="geometry" />
        </mxCell>
        <mxCell id="Fn2rYvCM5hyePDwb1TG5-55" value="" style="image;html=1;image=img/lib/clip_art/networking/Wireless_Router_N_128x128.png" vertex="1" parent="1">
          <mxGeometry x="411.5" y="1140" width="58.5" height="70" as="geometry" />
        </mxCell>
        <mxCell id="Fn2rYvCM5hyePDwb1TG5-58" value="" style="image;html=1;image=img/lib/clip_art/networking/Wireless_Router_N_128x128.png" vertex="1" parent="1">
          <mxGeometry x="1396.99" y="988" width="26.85" height="53" as="geometry" />
        </mxCell>
        <mxCell id="Fn2rYvCM5hyePDwb1TG5-59" value="P-BAN" style="ellipse;whiteSpace=wrap;html=1;aspect=fixed;" vertex="1" parent="1">
          <mxGeometry x="1412" y="942" width="71" height="71" as="geometry" />
        </mxCell>
        <mxCell id="Fn2rYvCM5hyePDwb1TG5-60" value="P-SE" style="ellipse;whiteSpace=wrap;html=1;aspect=fixed;" vertex="1" parent="1">
          <mxGeometry x="320" y="1143.5" width="80" height="80" as="geometry" />
        </mxCell>
        <mxCell id="Fn2rYvCM5hyePDwb1TG5-61" value="AP-CP" style="ellipse;whiteSpace=wrap;html=1;aspect=fixed;" vertex="1" parent="1">
          <mxGeometry x="2088" y="1034" width="80" height="80" as="geometry" />
        </mxCell>
        <mxCell id="Fn2rYvCM5hyePDwb1TG5-62" value="" style="image;html=1;image=img/lib/clip_art/networking/Wireless_Router_N_128x128.png" vertex="1" parent="1">
          <mxGeometry x="2064.58" y="1080" width="26.85" height="53" as="geometry" />
        </mxCell>
      </root>
    </mxGraphModel>
  </diagram>
</mxfile>
